# Blender v2.92.0 OBJ File: ''
# www.blender.org
mtllib ../../data/box.mtl
o Cube
v 1.000000 0.863325 -1.343428
v 1.000000 -0.863325 -1.343428
v 1.000000 0.863325 1.343428
v 1.000000 -0.863325 1.343428
v -1.000000 0.863325 -1.343428
v -1.000000 -0.863325 -1.343428
v -1.000000 0.863325 1.343428
v -1.000000 -0.863325 1.343428
vt 0.671326 0.449640
vt 0.921326 0.449640
vt 0.921326 0.699640
vt 0.671326 0.699640
vt 0.686502 0.723621
vt 0.936501 0.723621
vt 0.936501 0.973621
vt 0.686502 0.973621
vt 0.007671 0.022754
vt 0.979549 0.022754
vt 0.979549 0.994633
vt 0.007671 0.994633
vt 0.140974 0.106715
vt 0.390974 0.106715
vt 0.390974 0.356715
vt 0.140974 0.356715
vt 0.664137 0.176259
vt 0.914137 0.176259
vt 0.914137 0.426259
vt 0.664137 0.426259
vt 0.748802 0.216427
vt 0.998802 0.216427
vt 0.998802 0.466427
vt 0.748802 0.466427
vn 0.0000 1.0000 0.0000
vn 0.0000 0.0000 1.0000
vn -1.0000 0.0000 0.0000
vn 0.0000 -1.0000 0.0000
vn 1.0000 0.0000 0.0000
vn 0.0000 0.0000 -1.0000
usemtl Material
s off
f 1/1/1 5/2/1 7/3/1 3/4/1
f 4/5/2 3/6/2 7/7/2 8/8/2
f 8/9/3 7/10/3 5/11/3 6/12/3
f 6/13/4 2/14/4 4/15/4 8/16/4
f 2/17/5 1/18/5 3/19/5 4/20/5
f 6/21/6 5/22/6 1/23/6 2/24/6
