# Blender v2.92.0 OBJ File: ''
# www.blender.org
mtllib ../../data/light_switch.mtl
o switch0_Cube.001
g light_switch
v -1.002882 0.000000 0.098019
v -1.002882 0.970372 0.098019
v -1.002882 0.000000 0.014283
v -1.002882 0.970372 0.014283
v -0.292489 0.000000 0.098019
v -0.292489 0.970372 0.098019
v -0.292489 0.000000 0.014283
v -0.292489 0.970372 0.014283
vt 0.375000 0.000000
vt 0.625000 0.000000
vt 0.625000 0.250000
vt 0.375000 0.250000
vt 0.625000 0.500000
vt 0.375000 0.500000
vt 0.625000 0.750000
vt 0.375000 0.750000
vt 0.625000 1.000000
vt 0.375000 1.000000
vt 0.125000 0.500000
vt 0.125000 0.750000
vt 0.875000 0.500000
vt 0.875000 0.750000
vn -1.0000 0.0000 0.0000
vn 0.0000 0.0000 -1.0000
vn 1.0000 0.0000 0.0000
vn 0.0000 0.0000 1.0000
vn 0.0000 -1.0000 0.0000
vn 0.0000 1.0000 0.0000
usemtl Material.001
s off
f 1/1/1 2/2/1 4/3/1 3/4/1
f 3/4/2 4/3/2 8/5/2 7/6/2
f 7/6/3 8/5/3 6/7/3 5/8/3
f 5/8/4 6/7/4 2/9/4 1/10/4
f 3/11/5 7/6/5 5/8/5 1/12/5
f 8/5/6 4/13/6 2/14/6 6/7/6
o switch1_Cube.002
v -0.528730 0.298673 0.098019
v -0.528730 0.298673 0.149050
v -0.782161 0.298673 0.098019
v -0.782161 0.298673 0.149050
v -0.528730 0.750531 0.098019
v -0.528730 0.750531 0.149050
v -0.782161 0.750531 0.098019
v -0.782161 0.750531 0.149050
vt 0.375000 0.000000
vt 0.625000 0.000000
vt 0.625000 0.250000
vt 0.375000 0.250000
vt 0.625000 0.500000
vt 0.375000 0.500000
vt 0.625000 0.750000
vt 0.375000 0.750000
vt 0.625000 1.000000
vt 0.375000 1.000000
vt 0.125000 0.500000
vt 0.125000 0.750000
vt 0.875000 0.500000
vt 0.875000 0.750000
vn 0.0000 -1.0000 0.0000
vn -1.0000 0.0000 0.0000
vn 0.0000 1.0000 0.0000
vn 1.0000 0.0000 0.0000
vn -0.0000 0.0000 -1.0000
vn 0.0000 0.0000 1.0000
usemtl None
s off
f 9/15/7 10/16/7 12/17/7 11/18/7
f 11/18/8 12/17/8 16/19/8 15/20/8
f 15/20/9 16/19/9 14/21/9 13/22/9
f 13/22/10 14/21/10 10/23/10 9/24/10
f 11/25/11 15/20/11 13/22/11 9/26/11
f 16/19/12 12/27/12 10/28/12 14/21/12
o switch2_Cube.003
v -0.570451 0.378481 0.170999
v -0.570451 0.414494 0.225553
v -0.733432 0.378481 0.170999
v -0.733432 0.414494 0.225553
v -0.570451 0.610608 0.017767
v -0.570451 0.646620 0.072322
v -0.733432 0.610608 0.017767
v -0.733432 0.646620 0.072322
vt 0.375000 0.000000
vt 0.625000 0.000000
vt 0.625000 0.250000
vt 0.375000 0.250000
vt 0.625000 0.500000
vt 0.375000 0.500000
vt 0.625000 0.750000
vt 0.375000 0.750000
vt 0.625000 1.000000
vt 0.375000 1.000000
vt 0.125000 0.500000
vt 0.125000 0.750000
vt 0.875000 0.500000
vt 0.875000 0.750000
vn 0.0000 -0.8346 0.5509
vn -1.0000 0.0000 0.0000
vn 0.0000 0.8346 -0.5509
vn 1.0000 -0.0000 0.0000
vn 0.0000 -0.5509 -0.8346
vn 0.0000 0.5509 0.8346
usemtl Material.002
s off
f 17/29/13 18/30/13 20/31/13 19/32/13
f 19/32/14 20/31/14 24/33/14 23/34/14
f 23/34/15 24/33/15 22/35/15 21/36/15
f 21/36/16 22/35/16 18/37/16 17/38/16
f 19/39/17 23/34/17 21/36/17 17/40/17
f 24/33/18 20/41/18 18/42/18 22/35/18
